<svg id="Layer_1" data-name="Layer 1" xmlns="http://www.w3.org/2000/svg" viewBox="0 0 4683.16 1856.47"><defs><style>.cls-1{fill:none;stroke:#231915;stroke-miterlimit:10;stroke-width:7px;}</style></defs><title>fotografija [Converted]</title><path class="cls-1" d="M160.34,2218.93c74.47-69.91,148.82-139.71,268.78-161.74s285.59,3.8,417.16,9.88,229.37-7.6,318.27-3.8,168.8,25.07,285.49,33.43,270.07,3.8,358.11-16.71,110.94-57,122.33-95.75,11.4-79.68-3.79-106.27-45.59-38.75-111.7-37.23-167.82,16.71-238.38,36.47-110.18,44.07-138.95,69.91-47.1,53.08-41.79,69.8,34.2,22.79,90.32,19,139.81-17.47,210.37-34.19,128.31-36.47,167.06-66,58.51-69.15,76.74-88.14,35-17.48,57.65-6.84,51.67,30.39,87.38,36.47,78.16-1.52,151.1-9.12,176.18-15.19,237-32.67,78.92-44.83,95.63-80.44,31.92-79.79,53.19-101.82,48.63-22,70.56-27.35,38.75-16,49.39-26.49,15.2-21.27,77.51-23.56,182.26,3.8,248.25,7.6,78.27,5.32,82.07,10.64-.76,14.33,7.6,19.65,29.63,6.84,50.8,13.68,42.55,19,60,39.51,31.15,49.39,47.11,78.26,34.19,57.64,44.83,75.88,13.57,25.84-.76,49.39-46.35,63.07-70.66,88.79-41,38-76.75,37.24-90.32-14.44-151.11-25.07-127.54-18.13-193.65-12.92-131.35,23.55-189.1,49.39-107.79,59.27-157.18,104.86-97.91,103.23-132.86,175.42-56.23,158.7-65.25,242.94-6.07,166.3,23.45,249.88,85.87,168.58,166.3,239.14,185.3,126.9,291.68,151.86,214.17,19,301.45,0,154.14-50.8,214.93-97.15,115.39-107,153.38-176.18,59.27-146.55,67.63-240.77,3.69-204.94-30.39-295.37-98-160.22-163.27-212.65-132.21-87.27-201.25-110.07-140.47-33.43-208.85-23.55-133.63,40.27-199,90.42-130.58,120-180,180.73-82.72,112.36-97.16,183.79-9.88,162.5,4.56,231.53,38.64,116.26,71.32,160.22A555.16,555.16,0,0,0,2658,2981.39a492.35,492.35,0,0,0,157.94,75.88c59.92,16.72,128.31,24.31,197.45,12.16s139-44.07,192.79-73.6,91.94-57,133-109.42,85-129.83,99.44-210.37-.76-164-19-224.7-39.51-98.78-61.44-129.94-44.83-55.36-85.86-86.52-100.19-69.14-173.9-88.14-161.74-19-233.93-3.8-128.31,45.59-167.06,79-59.92,69.91-72.08,109.31-15.19,82.06-16.71,143.61-1.53,142-1.53,202.67,0,101.82,9.13,123.85,27.35,25,97.91,27.25,193.65,3.8,297.75,3.8,189-1.52,233.06-6.08,47.11-12.05,49.39-88.79,3.8-222.53,0-299.17-12.91-84.34-53.19-86.63-111.59.77-198.21,1.53-188.34-.76-251.3-.76-87.38,1.52-103.34,27.35-23.44,76-22.68,128.31,9.76,107.14,14.32,179.22,4.56,161.74,7.6,252.92,9.12,183.78,1.52,247.5-28.76,98.78-90.31,113.22-163.26,8.36-277.89-3.8-242.29-30.4-312.2-70.67-82-102.47-89.55-193.66-10.64-211-9.88-307.52,5.32-169.34,15.2-235.45,25.07-125.27,44.07-169.34,41.68-72.83,86.51-98.67,111.6-48.63,130.59-67.63-9.88-34.08-70.56-34.84-153.38,12.81-244.56,21.17-180.74,11.39-263.45,12.91-158.71,1.52-205.82,27.36-65.35,77.5-72.19,157.94-2.27,189.85-3,309.15-6.83,248.26-8.35,369.73,1.52,235.45,12.92,303.07,31.15,88.8,117.77,97.92,239.9,6.07,388.72,2.28,293.2-8.36,489.79-9.88,445.82,0,656.19,2.28,382,5.32,518.66,3.79,238.38-7.59,299.92-25.07,82.83-46.35,90.32-119.19,1.52-189.85-.76-332.6-.76-311.32-.76-455.7-1.41-264.21-13.57-351.59-34.95-142-68.39-171.62-77.5-34.09-142.74-49.29-151.87-41-202.78-35.71-66.11,41.8-81.3,73-30.29,56.88-22.69,85.76,37.88,60.78,75.88,72.94,83.58,4.56,152.62,3.8,161.74,5.32,228.61,3.8,107.79-10.64,164-47.87,127.55-102.58,220.25-128.31,206.57-12.16,290.05,18.13,136.67,77.51,189.86,88.9,106.27-12.92,159.46-37.23" transform="translate(-157.95 -1571.77)"/></svg>