<svg id="Layer_2" data-name="Layer 2" xmlns="http://www.w3.org/2000/svg" viewBox="0 0 4681.31 1821.69"><defs><style>.cls-1,.cls-2,.cls-3,.cls-4,.cls-5{fill:none;stroke:#231f20;}.cls-1,.cls-2,.cls-3{stroke-miterlimit:10;}.cls-1,.cls-2,.cls-4{stroke-width:10px;}.cls-2{fill-rule:evenodd;}.cls-3,.cls-5{stroke-width:20px;}.cls-4,.cls-5{stroke-linecap:round;stroke-linejoin:round;}</style></defs><title>graficki</title><line class="cls-1" x1="1617.59" y1="691.42" x2="2249.96" y2="692.06"/><line class="cls-1" x1="2436.7" y1="691.74" x2="3069.07" y2="692.38"/><path class="cls-2" d="M1907,2838.37s-27.22-550.53,487-569.74" transform="translate(-160.34 -1576.57)"/><path class="cls-2" d="M3056.17,1769.79s67.51,360.82-450.12,498.84" transform="translate(-160.34 -1576.57)"/><polygon class="cls-2" points="2339.69 794.17 2106.44 1153.58 2175.32 1508.34 2504.05 1508.34 2572.81 1153.58 2339.69 794.17"/><circle class="cls-3" cx="1549.11" cy="691.42" r="66.09"/><circle class="cls-3" cx="3129.68" cy="691.42" r="66.09"/><circle class="cls-3" cx="2339.32" cy="1207.5" r="89.36"/><line class="cls-1" x1="2339.69" y1="794.17" x2="2339.69" y2="1118.14"/><rect class="cls-4" x="2130.6" y="1515.33" width="416.45" height="137.9" rx="27.79"/><path class="cls-4" d="M2197.34,1653.23h283.4a0,0,0,0,1,0,0v128.22a35.23,35.23,0,0,1-35.23,35.23H2232.57a35.23,35.23,0,0,1-35.23-35.23V1653.23A0,0,0,0,1,2197.34,1653.23Z"/><rect class="cls-5" x="2245.71" y="597.14" width="189.49" height="189.49" rx="49.88"/><rect class="cls-5" x="1653.04" y="1252.74" width="189.49" height="189.49" rx="49.88"/><rect class="cls-5" x="2802.24" y="10" width="189.49" height="189.49" rx="49.88"/><line class="cls-1" x1="3231.85" y1="691.84" x2="4681.31" y2="691.84"/><line class="cls-1" y1="692.69" x2="1449.46" y2="692.69"/></svg>