<svg id="Layer_3" data-name="Layer 3" xmlns="http://www.w3.org/2000/svg" viewBox="0 0 4681.53 1828.85"><defs><style>.cls-1{opacity:0.49;}.cls-2{fill:#494b4e;}.cls-2,.cls-3{fill-rule:evenodd;}.cls-4{fill:none;stroke:#231f20;stroke-miterlimit:10;stroke-width:5px;}</style></defs><title>web</title><g id="_211663672" data-name=" 211663672" class="cls-1"><path id="_273538296" data-name=" 273538296" class="cls-2" d="M3201.72,2936.12a22.64,22.64,0,0,1-22.65-22.65q0-217.86.23-435.79t.22-435.8a103.39,103.39,0,0,0-103.23-103.23H2920.88a22.65,22.65,0,0,1,0-45.3h155.41c81.85,0,148.46,66.6,148.46,148.45q0,217.86-.23,435.8t-.22,435.8a22.59,22.59,0,0,1-22.58,22.72Zm-1747.82,0a22.64,22.64,0,0,1-22.65-22.65V2041.88c0-81.85,66.6-148.46,148.46-148.46h155.4a22.65,22.65,0,1,1,0,45.3h-155.4A103.4,103.4,0,0,0,1476.47,2042v871.6a22.55,22.55,0,0,1-22.57,22.57Z" transform="translate(-160.91 -1573.34)"/><path id="_273538344" data-name=" 273538344" class="cls-2" d="M3075.84,3061.93H1579.71c-81.86,0-148.46-66.61-148.46-148.46a22.64,22.64,0,0,1,22.65-22.65H3201.72a22.63,22.63,0,0,1,22.65,22.65c-.07,81.85-66.68,148.46-148.53,148.46ZM1479,2936.12a103.39,103.39,0,0,0,100.76,80.58H3075.92a103.46,103.46,0,0,0,100.76-80.58Z" transform="translate(-160.91 -1573.34)"/><path id="_273537888" data-name=" 273537888" class="cls-2" d="M2327.81,3402.19c-117.28,0-227.76-9.64-311.11-27.13-97.55-20.48-144.94-48.74-144.94-86.41,0-75.8,200.48-100.84,319.93-109a22.63,22.63,0,0,1,3.14,45.15c-192.18,13.16-269.93,48.59-277.55,63.76,2.54,3.89,20.56,25,119.15,44.33,79.09,15.47,182.62,24,291.38,24s212.29-8.52,291.38-24c98.6-19.29,116.69-40.52,119.15-44.33-7.62-15.1-85.36-50.6-277.55-63.76a22.59,22.59,0,0,1,3.07-45.07c119.52,8.14,320,33.18,320,109,0,37.68-47.4,65.93-144.95,86.41-83.34,17.42-193.82,27.06-311.11,27.06Z" transform="translate(-160.91 -1573.34)"/><path id="_273537624" data-name=" 273537624" class="cls-2" d="M2436.13,3303.15H2219.42c-22.5,0-47.09-13.16-58.38-31.25-8.29-13.3-9.27-28.63-2.69-42.08,27.29-55.62,27.88-115.27,2-182.32a22.6,22.6,0,1,1,42.16-16.29c30.5,78.93,29.53,149.95-2.92,217.15,2.47,3.66,11.66,9.56,19.81,9.56h216.71c8.14,0,17.34-5.9,19.8-9.56-32.44-67.2-33.41-138.22-2.91-217.15a22.6,22.6,0,1,1,42.16,16.29c-25.94,67.05-25.27,126.63,2,182.32,6.57,13.45,5.6,28.78-2.69,42.08-11.29,18.09-35.81,31.25-58.38,31.25Z" transform="translate(-160.91 -1573.34)"/><path id="_273537792" data-name=" 273537792" class="cls-2" d="M2920.44,2761.8H1735.11a22.64,22.64,0,0,1-22.65-22.65v-997.4c0-74.15,60.33-134.47,134.48-134.47h961.59c74.16,0,134.48,60.32,134.48,134.47v997.4a22.52,22.52,0,0,1-22.57,22.65Zm-1162.68-45.22h1140.1V1741.75a89.34,89.34,0,0,0-89.25-89.25H1847a89.34,89.34,0,0,0-89.25,89.25v974.83Z" transform="translate(-160.91 -1573.34)"/><path id="_273538176" data-name=" 273538176" class="cls-2" d="M2920.44,1893.05H1735.11a22.65,22.65,0,1,1,0-45.3H2920.44a22.65,22.65,0,1,1,0,45.3Z" transform="translate(-160.91 -1573.34)"/><path id="_273538128" data-name=" 273538128" class="cls-2" d="M1870.19,1816.36a66.23,66.23,0,1,1,66.23-66.23A66.31,66.31,0,0,1,1870.19,1816.36Zm0-87.16a20.93,20.93,0,1,0,20.93,20.93A20.94,20.94,0,0,0,1870.19,1729.2Z" transform="translate(-160.91 -1573.34)"/><path id="_273538008" data-name=" 273538008" class="cls-2" d="M2028,1816.36a66.23,66.23,0,1,1,66.23-66.23A66.31,66.31,0,0,1,2028,1816.36Zm0-87.16a20.93,20.93,0,1,0,20.93,20.93A20.94,20.94,0,0,0,2028,1729.2Z" transform="translate(-160.91 -1573.34)"/><path id="_273537480" data-name=" 273537480" class="cls-2" d="M2185.71,1816.36a66.23,66.23,0,1,1,66.23-66.23A66.31,66.31,0,0,1,2185.71,1816.36Zm0-87.16a20.93,20.93,0,1,0,20.93,20.93A20.94,20.94,0,0,0,2185.71,1729.2Z" transform="translate(-160.91 -1573.34)"/><path id="_273537408" data-name=" 273537408" class="cls-2" d="M2797,2313.3H1858.6a22.64,22.64,0,0,1-22.65-22.65V1961.07a22.64,22.64,0,0,1,22.65-22.65H2797a22.63,22.63,0,0,1,22.65,22.65v329.58A22.73,22.73,0,0,1,2797,2313.3Zm-915.84-45.23h893.19V1983.72H1881.18v284.35Z" transform="translate(-160.91 -1573.34)"/><path id="_273537072" data-name=" 273537072" class="cls-2" d="M2327.81,2642.87H1858.6a22.63,22.63,0,0,1-22.65-22.64V2290.65a22.65,22.65,0,0,1,45.3,0v307h446.56a22.61,22.61,0,1,1,0,45.22Z" transform="translate(-160.91 -1573.34)"/><path id="_273537456" data-name=" 273537456" class="cls-2" d="M2797,2642.87H2327.81a22.63,22.63,0,0,1-22.65-22.64V2290.65a22.65,22.65,0,0,1,45.3,0v307h424v-307a22.65,22.65,0,0,1,45.3,0v329.58a22.79,22.79,0,0,1-22.73,22.64Z" transform="translate(-160.91 -1573.34)"/><path id="_273537168" data-name=" 273537168" class="cls-2" d="M2691,2064.23H1964.6a22.65,22.65,0,1,1,0-45.3H2691a22.65,22.65,0,1,1,0,45.3Z" transform="translate(-160.91 -1573.34)"/><path id="_273536856" data-name=" 273536856" class="cls-2" d="M2691,2148.47H1964.6a22.65,22.65,0,0,1,0-45.3H2691a22.65,22.65,0,1,1,0,45.3Z" transform="translate(-160.91 -1573.34)"/><path id="_273537048" data-name=" 273537048" class="cls-2" d="M2691,2232.72H1964.6a22.65,22.65,0,0,1,0-45.3H2691a22.65,22.65,0,1,1,0,45.3Z" transform="translate(-160.91 -1573.34)"/><path id="_273537360" data-name=" 273537360" class="cls-2" d="M2195.65,2642.87a22.4,22.4,0,0,1-19.06-10.46l-139.93-219.62-139.94,219.62a22.63,22.63,0,0,1-38.19-24.29l159-249.6a22.6,22.6,0,0,1,38.12,0l159,249.6a22.62,22.62,0,0,1-6.95,31.24,22.13,22.13,0,0,1-12,3.51Z" transform="translate(-160.91 -1573.34)"/><path id="_273536064" data-name=" 273536064" class="cls-2" d="M2308.82,2642.87a22.4,22.4,0,0,1-19.06-10.46l-89-139.71-37.53,58.9a22.63,22.63,0,1,1-38.2-24.29l56.59-88.8a22.69,22.69,0,0,1,19.06-10.47h0a22.6,22.6,0,0,1,19.06,10.47l108.09,169.68a22.48,22.48,0,0,1-19,34.68Z" transform="translate(-160.91 -1573.34)"/><path id="_273536232" data-name=" 273536232" class="cls-2" d="M2709.12,2390.74H2415.64a22.65,22.65,0,0,1,0-45.3h293.48a22.65,22.65,0,0,1,0,45.3Z" transform="translate(-160.91 -1573.34)"/><path id="_273536784" data-name=" 273536784" class="cls-2" d="M2615.08,2478.12H2415.72a22.65,22.65,0,1,1,0-45.29h199.36a22.65,22.65,0,1,1,0,45.29Z" transform="translate(-160.91 -1573.34)"/><path id="_273536760" data-name=" 273536760" class="cls-2" d="M2515.36,2565.43h-99.72a22.65,22.65,0,0,1,0-45.3h99.72a22.65,22.65,0,0,1,0,45.3Z" transform="translate(-160.91 -1573.34)"/><path id="_273536568" data-name=" 273536568" class="cls-2" d="M3580,2901.44a22.64,22.64,0,0,1-22.65-22.65V2149.44a22.65,22.65,0,0,1,45.3,0v729.35a22.68,22.68,0,0,1-22.65,22.65Zm-268.65,0a22.63,22.63,0,0,1-22.65-22.65V2149.44a22.65,22.65,0,0,1,45.3,0v729.35a22.74,22.74,0,0,1-22.65,22.65Z" transform="translate(-160.91 -1573.34)"/><path id="_273536160" data-name=" 273536160" class="cls-2" d="M3445.64,3075.16a22.5,22.5,0,0,1-17.87-8.75l-134.33-173.72a22.6,22.6,0,0,1,17.94-36.4H3580a22.6,22.6,0,0,1,17.94,36.4l-134.33,173.72a23.22,23.22,0,0,1-18,8.75Zm-88.29-173.72,88.29,114.14,88.28-114.14Z" transform="translate(-160.91 -1573.34)"/><path id="_273536376" data-name=" 273536376" class="cls-2" d="M3515.08,2985.31a22.25,22.25,0,0,1-10.09-2.39c-36-18-82.68-18-118.71,0a22.63,22.63,0,0,1-20.18-40.52,180.19,180.19,0,0,1,159.22,0,22.65,22.65,0,0,1-10.24,42.91Z" transform="translate(-160.91 -1573.34)"/><path id="_273536424" data-name=" 273536424" class="cls-2" d="M3580,2172H3311.31a22.63,22.63,0,0,1-22.65-22.65v-89.25a22.65,22.65,0,0,1,45.3,0v66.6h223.43v-66.6a22.65,22.65,0,0,1,45.3,0v89.25A22.75,22.75,0,0,1,3580,2172Z" transform="translate(-160.91 -1573.34)"/><path id="_211674520" data-name=" 211674520" class="cls-2" d="M3580,2082.84H3311.31a22.63,22.63,0,0,1-22.65-22.65v-10.76c0-86.56,70.41-157,157-157s157,70.42,157,157v10.76a22.67,22.67,0,0,1-22.65,22.65Zm-245.4-45.3h222.15a111.7,111.7,0,0,0-222.15,0Z" transform="translate(-160.91 -1573.34)"/><path id="_211663912" data-name=" 211663912" class="cls-2" d="M3445.64,2809.72a22.63,22.63,0,0,1-22.65-22.65V2241a22.65,22.65,0,1,1,45.29,0v546.06A22.67,22.67,0,0,1,3445.64,2809.72Z" transform="translate(-160.91 -1573.34)"/></g><g id="_211677472" data-name=" 211677472"><path id="_211663552" data-name=" 211663552" class="cls-3" d="M3167.79,2902.19a22.64,22.64,0,0,1-22.65-22.65q0-217.86.22-435.8t.23-435.8a103.4,103.4,0,0,0-103.24-103.23H2887a22.65,22.65,0,1,1,0-45.3h155.4c81.86,0,148.46,66.6,148.46,148.46q0,217.86-.22,435.79t-.23,435.8a22.59,22.59,0,0,1-22.57,22.73Zm-1747.83,0a22.64,22.64,0,0,1-22.65-22.65v-871.6c0-81.85,66.61-148.45,148.46-148.45h155.41a22.65,22.65,0,0,1,0,45.3H1545.77A103.39,103.39,0,0,0,1442.54,2008v871.59a22.56,22.56,0,0,1-22.58,22.58Z" transform="translate(-160.91 -1573.34)"/><path id="_211663480" data-name=" 211663480" class="cls-3" d="M3041.91,3028.07H1545.77c-81.85,0-148.46-66.61-148.46-148.46A22.64,22.64,0,0,1,1420,2857H3167.79a22.64,22.64,0,0,1,22.65,22.65c-.08,81.85-66.68,148.46-148.53,148.46ZM1445.08,2902.19a103.41,103.41,0,0,0,100.76,80.58H3042a103.47,103.47,0,0,0,100.76-80.58Z" transform="translate(-160.91 -1573.34)"/><path id="_211663384" data-name=" 211663384" class="cls-3" d="M2293.87,3368.26c-117.28,0-227.76-9.65-311.11-27.14-97.55-20.48-144.94-48.74-144.94-86.41,0-75.8,200.48-100.84,319.93-109a22.63,22.63,0,1,1,3.14,45.15c-192.18,13.16-269.92,48.59-277.55,63.77,2.54,3.88,20.56,25,119.16,44.32,79.08,15.48,182.61,24,291.37,24s212.3-8.52,291.38-24c98.6-19.28,116.69-40.51,119.16-44.32-7.63-15.1-85.37-50.61-277.55-63.77a22.59,22.59,0,1,1,3.06-45.07c119.53,8.15,320,33.19,320,109,0,37.67-47.39,65.93-144.94,86.41-83.35,17.41-193.83,27.06-311.12,27.06Z" transform="translate(-160.91 -1573.34)"/><path id="_211663792" data-name=" 211663792" class="cls-3" d="M2402.19,3269.21h-216.7c-22.5,0-47.1-13.15-58.38-31.24-8.3-13.31-9.27-28.63-2.7-42.09,27.29-55.61,27.89-115.26,2-182.32a22.6,22.6,0,0,1,42.16-16.29c30.5,78.94,29.53,149.95-2.91,217.15,2.46,3.66,11.66,9.57,19.81,9.57h216.7c8.15,0,17.34-5.91,19.81-9.57-32.44-67.2-33.42-138.21-2.92-217.15a22.6,22.6,0,0,1,42.16,16.29c-25.94,67.06-25.26,126.63,2,182.32,6.58,13.46,5.61,28.78-2.69,42.09-11.29,18.09-35.81,31.24-58.38,31.24Z" transform="translate(-160.91 -1573.34)"/><path id="_211663696" data-name=" 211663696" class="cls-3" d="M2886.5,2727.87H1701.18a22.63,22.63,0,0,1-22.65-22.65v-997.4c0-74.16,60.32-134.48,134.47-134.48h961.6c74.15,0,134.47,60.32,134.47,134.48v997.4a22.47,22.47,0,0,1-22.57,22.65Zm-1162.68-45.23h1140.1V1707.82a89.34,89.34,0,0,0-89.25-89.26H1813.08a89.35,89.35,0,0,0-89.26,89.26v974.82Z" transform="translate(-160.91 -1573.34)"/><path id="_211663456" data-name=" 211663456" class="cls-3" d="M2886.5,1859.11H1701.18a22.65,22.65,0,0,1,0-45.3H2886.5a22.65,22.65,0,1,1,0,45.3Z" transform="translate(-160.91 -1573.34)"/><path id="_211663432" data-name=" 211663432" class="cls-3" d="M1836.25,1782.42a66.23,66.23,0,1,1,66.23-66.23A66.31,66.31,0,0,1,1836.25,1782.42Zm0-87.16a20.93,20.93,0,1,0,20.93,20.93A20.94,20.94,0,0,0,1836.25,1695.26Z" transform="translate(-160.91 -1573.34)"/><path id="_211663000" data-name=" 211663000" class="cls-3" d="M1994.05,1782.42a66.23,66.23,0,1,1,66.23-66.23A66.31,66.31,0,0,1,1994.05,1782.42Zm0-87.16a20.93,20.93,0,1,0,20.93,20.93A20.94,20.94,0,0,0,1994.05,1695.26Z" transform="translate(-160.91 -1573.34)"/><path id="_211662784" data-name=" 211662784" class="cls-3" d="M2151.77,1782.42a66.23,66.23,0,1,1,66.23-66.23A66.31,66.31,0,0,1,2151.77,1782.42Zm0-87.16a20.93,20.93,0,1,0,20.93,20.93A20.95,20.95,0,0,0,2151.77,1695.26Z" transform="translate(-160.91 -1573.34)"/><path id="_211663096" data-name=" 211663096" class="cls-3" d="M2763.09,2279.36H1824.66a22.64,22.64,0,0,1-22.65-22.65V1927.14a22.64,22.64,0,0,1,22.65-22.65h938.43a22.64,22.64,0,0,1,22.65,22.65v329.57a22.69,22.69,0,0,1-22.65,22.65Zm-915.85-45.22h893.2V1949.79h-893.2v284.35Z" transform="translate(-160.91 -1573.34)"/><path id="_211662568" data-name=" 211662568" class="cls-3" d="M2293.87,2608.94H1824.66a22.64,22.64,0,0,1-22.65-22.65V2256.71a22.65,22.65,0,1,1,45.3,0v307h446.56a22.62,22.62,0,1,1,0,45.23Z" transform="translate(-160.91 -1573.34)"/><path id="_211662832" data-name=" 211662832" class="cls-3" d="M2763.09,2608.94H2293.87a22.63,22.63,0,0,1-22.64-22.65V2256.71a22.65,22.65,0,1,1,45.29,0v307h424v-307a22.65,22.65,0,0,1,45.3,0v329.58a22.79,22.79,0,0,1-22.72,22.65Z" transform="translate(-160.91 -1573.34)"/><path id="_211662424" data-name=" 211662424" class="cls-3" d="M2657,2030.29H1930.66a22.65,22.65,0,0,1,0-45.3H2657a22.65,22.65,0,0,1,0,45.3Z" transform="translate(-160.91 -1573.34)"/><path id="_211662904" data-name=" 211662904" class="cls-3" d="M2657,2114.54H1930.66a22.65,22.65,0,0,1,0-45.3H2657a22.65,22.65,0,0,1,0,45.3Z" transform="translate(-160.91 -1573.34)"/><path id="_211662880" data-name=" 211662880" class="cls-3" d="M2657,2198.86H1930.66a22.65,22.65,0,1,1,0-45.3H2657a22.65,22.65,0,0,1,0,45.3Z" transform="translate(-160.91 -1573.34)"/><path id="_211678624" data-name=" 211678624" class="cls-3" d="M2161.72,2608.94a22.39,22.39,0,0,1-19.07-10.47l-139.93-219.61-139.93,219.61a22.63,22.63,0,0,1-38.2-24.29l159-249.59a22.59,22.59,0,0,1,38.13,0l159,249.59a22.62,22.62,0,0,1-6.95,31.24,21.84,21.84,0,0,1-12,3.52Z" transform="translate(-160.91 -1573.34)"/><path id="_211677952" data-name=" 211677952" class="cls-3" d="M2274.89,2608.94a22.37,22.37,0,0,1-19.06-10.47l-89-139.71-37.53,58.91a22.63,22.63,0,1,1-38.19-24.3l56.58-88.8a22.72,22.72,0,0,1,19.06-10.47h0a22.62,22.62,0,0,1,19.06,10.47l108.09,169.68a22.5,22.5,0,0,1-19,34.69Z" transform="translate(-160.91 -1573.34)"/><path id="_211677880" data-name=" 211677880" class="cls-3" d="M2675.18,2356.88H2381.71a22.65,22.65,0,0,1,0-45.3h293.47a22.65,22.65,0,0,1,0,45.3Z" transform="translate(-160.91 -1573.34)"/><path id="_211678072" data-name=" 211678072" class="cls-3" d="M2581.14,2444.19H2381.71a22.65,22.65,0,0,1,0-45.3h199.36a22.65,22.65,0,0,1,.07,45.3Z" transform="translate(-160.91 -1573.34)"/><path id="_211677904" data-name=" 211677904" class="cls-3" d="M2481.42,2531.5h-99.71a22.65,22.65,0,0,1,0-45.3h99.71a22.65,22.65,0,0,1,0,45.3Z" transform="translate(-160.91 -1573.34)"/><path id="_211678216" data-name=" 211678216" class="cls-3" d="M3546,2867.5a22.63,22.63,0,0,1-22.65-22.65V2115.51a22.65,22.65,0,1,1,45.29,0v729.34A22.67,22.67,0,0,1,3546,2867.5Zm-268.66,0a22.64,22.64,0,0,1-22.65-22.65V2115.51a22.65,22.65,0,0,1,45.3,0v729.34a22.68,22.68,0,0,1-22.65,22.65Z" transform="translate(-160.91 -1573.34)"/><path id="_211678408" data-name=" 211678408" class="cls-3" d="M3411.7,3041.22a22.49,22.49,0,0,1-17.87-8.74l-134.32-173.72a22.59,22.59,0,0,1,17.94-36.41H3546.1a22.6,22.6,0,0,1,17.94,36.41l-134.33,173.72a23,23,0,0,1-18,8.74Zm-88.28-173.72,88.28,114.15L3500,2867.5Z" transform="translate(-160.91 -1573.34)"/><path id="_211678528" data-name=" 211678528" class="cls-3" d="M3481.14,2951.37a22.28,22.28,0,0,1-10.09-2.39c-36-18-82.67-18-118.7,0a22.64,22.64,0,0,1-20.19-40.52,180.28,180.28,0,0,1,159.22,0,22.65,22.65,0,0,1-10.24,42.91Z" transform="translate(-160.91 -1573.34)"/><path id="_211677616" data-name=" 211677616" class="cls-3" d="M3546,2138.08H3277.37a22.64,22.64,0,0,1-22.65-22.65v-89.25a22.65,22.65,0,1,1,45.3,0v66.6h223.43v-66.6a22.65,22.65,0,0,1,45.3,0v89.25a22.75,22.75,0,0,1-22.72,22.65Z" transform="translate(-160.91 -1573.34)"/><path id="_211677376" data-name=" 211677376" class="cls-3" d="M3546,2048.91H3277.37a22.64,22.64,0,0,1-22.65-22.65v-10.77c0-86.56,70.42-157,157-157s157,70.42,157,157v10.77a22.68,22.68,0,0,1-22.64,22.65Zm-245.41-45.23h222.16a111.71,111.71,0,0,0-222.16,0Z" transform="translate(-160.91 -1573.34)"/><path id="_211677016" data-name=" 211677016" class="cls-3" d="M3411.7,2775.86a22.63,22.63,0,0,1-22.65-22.65V2207.15a22.65,22.65,0,0,1,45.3,0v546.06A22.69,22.69,0,0,1,3411.7,2775.86Z" transform="translate(-160.91 -1573.34)"/></g><line class="cls-4" y1="1202.52" x2="1236.4" y2="1202.52"/><line class="cls-4" x1="3441.7" y1="1202.46" x2="4681.53" y2="1203.46"/></svg>